<svg width="24" height="24" viewBox="0 0 24 24" fill="none" xmlns="http://www.w3.org/2000/svg">
<path d="M18.25 7.5C17.1028 7.50045 15.9946 7.91604 15.13 8.67L12.75 10.75L10.37 8.67C9.5054 7.91604 8.39716 7.50045 7.25 7.5C6.12283 7.5 5.04183 7.94777 4.2448 8.7448C3.44777 9.54183 3 10.6228 3 11.75C3 12.8772 3.44777 13.9582 4.2448 14.7552C5.04183 15.5522 6.12283 16 7.25 16C8.39716 15.9995 9.5054 15.584 10.37 14.83L12.75 12.75L15.13 14.83C15.9946 15.584 17.1028 15.9995 18.25 16C19.3772 16 20.4582 15.5522 21.2552 14.7552C22.0522 13.9582 22.5 12.8772 22.5 11.75C22.5 10.6228 22.0522 9.54183 21.2552 8.7448C20.4582 7.94777 19.3772 7.5 18.25 7.5ZM9.38 13.75C8.78959 14.2646 8.0332 14.5487 7.25 14.55C6.52065 14.55 5.82118 14.2603 5.30546 13.7445C4.78973 13.2288 4.5 12.5293 4.5 11.8C4.5 11.0707 4.78973 10.3712 5.30546 9.85546C5.82118 9.33973 6.52065 9.05 7.25 9.05C8.0332 9.05131 8.78959 9.3354 9.38 9.85L11.61 11.75L9.38 13.75ZM18.25 14.55C17.4668 14.5487 16.7104 14.2646 16.12 13.75L13.89 11.75L16.12 9.8C16.7104 9.2854 17.4668 9.00131 18.25 9C18.9793 9 19.6788 9.28973 20.1945 9.80546C20.7103 10.3212 21 11.0207 21 11.75C21 12.4793 20.7103 13.1788 20.1945 13.6945C19.6788 14.2103 18.9793 14.5 18.25 14.5V14.55Z" fill="#050103"/>
</svg>
